ply
format ascii 1.0
element vertex 8
property float x
property float y
property float z
property float vertex_scalar
element face 12
property list uchar int vertex_indices
end_header
-1.0 -1.0 -1.0 0.24813719513615462
-1.0 -1.0 1.0 0.8114319215272657
-1.0 1.0 -1.0 0.2841866151935015
-1.0 1.0 1.0 0.9177951852914383
1.0 -1.0 -1.0 0.21457635841962797
1.0 -1.0 1.0 0.24290144619988763
1.0 1.0 -1.0 -1.0
1.0 1.0 1.0 0.30941438562192813
3 1 3 0
3 4 1 0
3 0 3 2
3 2 4 0
3 1 7 3
3 5 1 4
3 5 7 1
3 3 7 2
3 6 4 2
3 2 7 6
3 6 5 4
3 7 5 6
