ply
format ascii 1.0
element vertex 162
property float x
property float y
property float z
element face 320
property list uchar int vertex_indices
property float face_scalar
end_header
-0.5257311121191336 0.85065080835204 0.0
0.5257311121191336 0.85065080835204 0.0
-0.5257311121191336 -0.85065080835204 0.0
0.5257311121191336 -0.85065080835204 0.0
0.0 -0.5257311121191336 0.85065080835204
0.0 0.5257311121191336 0.85065080835204
0.0 -0.5257311121191336 -0.85065080835204
0.0 0.5257311121191336 -0.85065080835204
0.85065080835204 0.0 -0.5257311121191336
0.85065080835204 0.0 0.5257311121191336
-0.85065080835204 0.0 -0.5257311121191336
-0.85065080835204 0.0 0.5257311121191336
0.0 1.0 0.0
0.0 -1.0 0.0
-0.30901699437494745 -0.8090169943749475 0.5000000000000001
0.30901699437494745 -0.8090169943749475 0.5000000000000001
-0.30901699437494745 0.8090169943749475 0.5000000000000001
0.30901699437494745 0.8090169943749475 0.5000000000000001
0.0 0.0 1.0
-0.30901699437494745 -0.8090169943749475 -0.5000000000000001
0.30901699437494745 -0.8090169943749475 -0.5000000000000001
-0.30901699437494745 0.8090169943749475 -0.5000000000000001
0.30901699437494745 0.8090169943749475 -0.5000000000000001
0.0 0.0 -1.0
0.8090169943749475 0.5000000000000001 -0.30901699437494745
0.8090169943749475 -0.5000000000000001 -0.30901699437494745
0.5000000000000001 -0.30901699437494745 -0.8090169943749475
0.5000000000000001 0.30901699437494745 -0.8090169943749475
0.8090169943749475 0.5000000000000001 0.30901699437494745
0.8090169943749475 -0.5000000000000001 0.30901699437494745
0.5000000000000001 -0.30901699437494745 0.8090169943749475
0.5000000000000001 0.30901699437494745 0.8090169943749475
1.0 0.0 0.0
-0.8090169943749475 0.5000000000000001 -0.30901699437494745
-0.8090169943749475 -0.5000000000000001 -0.30901699437494745
-0.5000000000000001 -0.30901699437494745 -0.8090169943749475
-0.5000000000000001 0.30901699437494745 -0.8090169943749475
-0.8090169943749475 0.5000000000000001 0.30901699437494745
-0.8090169943749475 -0.5000000000000001 0.30901699437494745
-0.5000000000000001 -0.30901699437494745 0.8090169943749475
-0.5000000000000001 0.30901699437494745 0.8090169943749475
-1.0 0.0 0.0
-0.2732665289126717 0.9619383577839176 0.0
0.2732665289126717 0.9619383577839176 0.0
-0.2732665289126717 -0.9619383577839176 0.0
0.2732665289126717 -0.9619383577839176 0.0
-0.43388856455269476 -0.8626684804161862 0.2598919130077544
-0.16062203564002311 -0.6937804775604491 0.702046444776163
-0.16245984811645314 -0.9510565162951536 0.2628655560595668
0.43388856455269476 -0.8626684804161862 0.2598919130077544
0.16062203564002311 -0.6937804775604491 0.702046444776163
0.16245984811645314 -0.9510565162951536 0.2628655560595668
0.0 -0.8506508083520399 0.5257311121191336
-0.43388856455269476 0.8626684804161862 0.2598919130077544
-0.16062203564002311 0.6937804775604491 0.702046444776163
-0.16245984811645314 0.9510565162951536 0.2628655560595668
0.43388856455269476 0.8626684804161862 0.2598919130077544
0.16062203564002311 0.6937804775604491 0.702046444776163
0.16245984811645314 0.9510565162951536 0.2628655560595668
0.0 0.8506508083520399 0.5257311121191336
0.0 -0.2732665289126717 0.9619383577839176
0.0 0.2732665289126717 0.9619383577839176
-0.43388856455269476 -0.8626684804161862 -0.2598919130077544
-0.16062203564002311 -0.6937804775604491 -0.702046444776163
-0.16245984811645314 -0.9510565162951536 -0.2628655560595668
0.43388856455269476 -0.8626684804161862 -0.2598919130077544
0.16062203564002311 -0.6937804775604491 -0.702046444776163
0.16245984811645314 -0.9510565162951536 -0.2628655560595668
0.0 -0.8506508083520399 -0.5257311121191336
-0.43388856455269476 0.8626684804161862 -0.2598919130077544
-0.16062203564002311 0.6937804775604491 -0.702046444776163
-0.16245984811645314 0.9510565162951536 -0.2628655560595668
0.43388856455269476 0.8626684804161862 -0.2598919130077544
0.16062203564002311 0.6937804775604491 -0.702046444776163
0.16245984811645314 0.9510565162951536 -0.2628655560595668
0.0 0.8506508083520399 -0.5257311121191336
0.0 -0.2732665289126717 -0.9619383577839176
0.0 0.2732665289126717 -0.9619383577839176
0.6937804775604491 0.7020464447761631 -0.16062203564002314
0.8626684804161862 0.25989191300775444 -0.4338885645526948
0.5877852522924731 0.6881909602355867 -0.42532540417601994
0.6937804775604491 -0.7020464447761631 -0.16062203564002314
0.8626684804161862 -0.25989191300775444 -0.4338885645526948
0.5877852522924731 -0.6881909602355867 -0.42532540417601994
0.25989191300775444 -0.4338885645526948 -0.8626684804161862
0.7020464447761631 -0.16062203564002314 -0.6937804775604491
0.42532540417602 -0.5877852522924731 -0.6881909602355868
0.26286555605956685 -0.1624598481164532 -0.9510565162951536
0.6881909602355868 -0.42532540417602005 -0.5877852522924731
0.25989191300775444 0.4338885645526948 -0.8626684804161862
0.7020464447761631 0.16062203564002314 -0.6937804775604491
0.42532540417602 0.5877852522924731 -0.6881909602355868
0.26286555605956685 0.1624598481164532 -0.9510565162951536
0.6881909602355868 0.42532540417602005 -0.5877852522924731
0.5257311121191337 0.0 -0.8506508083520399
0.6937804775604491 0.7020464447761631 0.16062203564002314
0.8626684804161862 0.25989191300775444 0.4338885645526948
0.5877852522924731 0.6881909602355867 0.42532540417601994
0.8506508083520399 0.5257311121191337 0.0
0.6937804775604491 -0.7020464447761631 0.16062203564002314
0.8626684804161862 -0.25989191300775444 0.4338885645526948
0.5877852522924731 -0.6881909602355867 0.42532540417601994
0.8506508083520399 -0.5257311121191337 0.0
0.25989191300775444 -0.4338885645526948 0.8626684804161862
0.7020464447761631 -0.16062203564002314 0.6937804775604491
0.42532540417602 -0.5877852522924731 0.6881909602355868
0.26286555605956685 -0.1624598481164532 0.9510565162951536
0.6881909602355868 -0.42532540417602005 0.5877852522924731
0.25989191300775444 0.4338885645526948 0.8626684804161862
0.7020464447761631 0.16062203564002314 0.6937804775604491
0.42532540417602 0.5877852522924731 0.6881909602355868
0.26286555605956685 0.1624598481164532 0.9510565162951536
0.6881909602355868 0.42532540417602005 0.5877852522924731
0.5257311121191337 0.0 0.8506508083520399
0.9619383577839176 0.0 -0.2732665289126717
0.9619383577839176 0.0 0.2732665289126717
0.9510565162951536 0.26286555605956685 -0.1624598481164532
0.9510565162951536 -0.26286555605956685 -0.1624598481164532
0.9510565162951536 0.26286555605956685 0.1624598481164532
0.9510565162951536 -0.26286555605956685 0.1624598481164532
-0.6937804775604491 0.7020464447761631 -0.16062203564002314
-0.8626684804161862 0.25989191300775444 -0.4338885645526948
-0.5877852522924731 0.6881909602355867 -0.42532540417601994
-0.6937804775604491 -0.7020464447761631 -0.16062203564002314
-0.8626684804161862 -0.25989191300775444 -0.4338885645526948
-0.5877852522924731 -0.6881909602355867 -0.42532540417601994
-0.25989191300775444 -0.4338885645526948 -0.8626684804161862
-0.7020464447761631 -0.16062203564002314 -0.6937804775604491
-0.42532540417602 -0.5877852522924731 -0.6881909602355868
-0.26286555605956685 -0.1624598481164532 -0.9510565162951536
-0.6881909602355868 -0.42532540417602005 -0.5877852522924731
-0.25989191300775444 0.4338885645526948 -0.8626684804161862
-0.7020464447761631 0.16062203564002314 -0.6937804775604491
-0.42532540417602 0.5877852522924731 -0.6881909602355868
-0.26286555605956685 0.1624598481164532 -0.9510565162951536
-0.6881909602355868 0.42532540417602005 -0.5877852522924731
-0.5257311121191337 0.0 -0.8506508083520399
-0.6937804775604491 0.7020464447761631 0.16062203564002314
-0.8626684804161862 0.25989191300775444 0.4338885645526948
-0.5877852522924731 0.6881909602355867 0.42532540417601994
-0.8506508083520399 0.5257311121191337 0.0
-0.6937804775604491 -0.7020464447761631 0.16062203564002314
-0.8626684804161862 -0.25989191300775444 0.4338885645526948
-0.5877852522924731 -0.6881909602355867 0.42532540417601994
-0.8506508083520399 -0.5257311121191337 0.0
-0.25989191300775444 -0.4338885645526948 0.8626684804161862
-0.7020464447761631 -0.16062203564002314 0.6937804775604491
-0.42532540417602 -0.5877852522924731 0.6881909602355868
-0.26286555605956685 -0.1624598481164532 0.9510565162951536
-0.6881909602355868 -0.42532540417602005 0.5877852522924731
-0.25989191300775444 0.4338885645526948 0.8626684804161862
-0.7020464447761631 0.16062203564002314 0.6937804775604491
-0.42532540417602 0.5877852522924731 0.6881909602355868
-0.26286555605956685 0.1624598481164532 0.9510565162951536
-0.6881909602355868 0.42532540417602005 0.5877852522924731
-0.5257311121191337 0.0 0.8506508083520399
-0.9619383577839176 0.0 -0.2732665289126717
-0.9619383577839176 0.0 0.2732665289126717
-0.9510565162951536 0.26286555605956685 -0.1624598481164532
-0.9510565162951536 -0.26286555605956685 -0.1624598481164532
-0.9510565162951536 0.26286555605956685 0.1624598481164532
-0.9510565162951536 -0.26286555605956685 0.1624598481164532
3 0 137 53 -1.0
3 137 37 139 0.4077548651585765
3 53 139 16 0.6701759815535386
3 137 139 53 0.917004152332334
3 37 138 154 0.5255357862963467
3 138 11 151 0.36676296381709583
3 154 151 40 -1.0
3 138 151 154 0.7863765855379106
3 16 152 54 0.3449607593962113
3 152 40 150 0.6923063194515648
3 54 150 5 0.9971725281864315
3 152 150 54 0.850853332002771
3 37 154 139 0.6211954736208168
3 154 40 152 0.6355193738364332
3 139 152 16 -1.0
3 154 152 139 0.3027820041177972
3 0 53 42 -1.0
3 53 16 55 0.9195999136673683
3 42 55 12 -1.0
3 53 55 42 0.9860520586578078
3 16 54 59 0.28640421770670643
3 54 5 57 0.11834114116164351
3 59 57 17 0.034467238529936384
3 54 57 59 0.7295511755361175
3 12 58 43 -1.0
3 58 17 56 0.5352534944079091
3 43 56 1 0.6285619701528915
3 58 56 43 0.4198301117170955
3 16 59 55 0.7542509963581787
3 59 17 58 0.4540196114571693
3 55 58 12 -1.0
3 59 58 55 0.6754213669420638
3 0 42 69 0.9031294031355863
3 42 12 71 -1.0
3 69 71 21 0.4144702687731595
3 42 71 69 0.3778464242792384
3 12 43 74 0.24061639278249847
3 43 1 72 0.8395826930590798
3 74 72 22 0.2918177672341954
3 43 72 74 0.8495751324987001
3 21 75 70 0.6075275180791565
3 75 22 73 0.0020161536740852526
3 70 73 7 0.21080894730778166
3 75 73 70 0.1730282701957232
3 12 74 71 0.23609810194010683
3 74 22 75 0.22169779138380863
3 71 75 21 0.5012354496714083
3 74 75 71 0.9915952860355327
3 0 69 120 0.3842451804343343
3 69 21 122 -1.0
3 120 122 33 -1.0
3 69 122 120 -1.0
3 21 70 133 -1.0
3 70 7 131 0.021388807109754326
3 133 131 36 0.16965599265334175
3 70 131 133 -1.0
3 33 135 121 0.5023492446332982
3 135 36 132 0.4766286963402071
3 121 132 10 0.07525587446299642
3 135 132 121 0.1580737703005053
3 21 133 122 -1.0
3 133 36 135 0.908031089723048
3 122 135 33 0.5173874832256957
3 133 135 122 -1.0
3 0 120 137 0.6394052203031592
3 120 33 140 0.8100993712135276
3 137 140 37 -1.0
3 120 140 137 0.15248670880168924
3 33 121 158 -1.0
3 121 10 156 0.25766265957470347
3 158 156 41 0.36010404376602656
3 121 156 158 0.6603801890045179
3 37 160 138 0.9087253646018197
3 160 41 157 0.4939539549563663
3 138 157 11 0.2621941945559402
3 160 157 138 0.83005565751041
3 33 158 140 -1.0
3 158 41 160 0.27322310261383664
3 140 160 37 0.6421230555472021
3 158 160 140 -1.0
3 1 56 95 0.4038989889762339
3 56 17 97 0.8997744459916428
3 95 97 28 0.11550178033578373
3 56 97 95 0.843357087829055
3 17 57 110 0.6103676328045918
3 57 5 108 0.47782089000708483
3 110 108 31 -1.0
3 57 108 110 0.9189596643628263
3 28 112 96 0.5075025419284918
3 112 31 109 0.19750650631086264
3 96 109 9 0.31172991287189145
3 112 109 96 0.31371356316076005
3 17 110 97 0.04965010170475659
3 110 31 112 0.7237172195496379
3 97 112 28 0.4930756956362893
3 110 112 97 0.8196917674667975
3 5 150 61 0.6656281415117692
3 150 40 153 0.9015744796361282
3 61 153 18 -1.0
3 150 153 61 -1.0
3 40 151 155 0.2641055121835072
3 151 11 146 0.5337347751599899
3 155 146 39 -1.0
3 151 146 155 -1.0
3 18 148 60 0.22798229924035085
3 148 39 145 -1.0
3 60 145 4 0.3046345027845052
3 148 145 60 0.6303845646083419
3 40 155 153 0.055654823683983556
3 155 39 148 -1.0
3 153 148 18 0.8374355891706684
3 155 148 153 0.7123184646856459
3 11 157 142 -1.0
3 157 41 161 -1.0
3 142 161 38 -1.0
3 157 161 142 0.7335204047341772
3 41 156 159 0.6973558798872151
3 156 10 124 0.611833569320078
3 159 124 34 -1.0
3 156 124 159 0.6097788825974993
3 38 144 141 0.6749956501083688
3 144 34 123 0.9704723206861134
3 141 123 2 -1.0
3 144 123 141 -1.0
3 41 159 161 0.9984526590929271
3 159 34 144 0.8103821504552498
3 161 144 38 -1.0
3 159 144 161 0.7067352152749771
3 10 132 127 0.6685147580548354
3 132 36 136 0.5790076193208544
3 127 136 35 0.18354490159504333
3 132 136 127 0.598965019780682
3 36 131 134 0.27550546332339443
3 131 7 77 0.4472169607066492
3 134 77 23 0.7524712515540835
3 131 77 134 -1.0
3 35 129 126 0.07284440231912437
3 129 23 76 0.3902867141443034
3 126 76 6 0.5233931661505756
3 129 76 126 0.8395183760965856
3 36 134 136 0.747377674339182
3 134 23 129 0.5091585938698607
3 136 129 35 0.8792694572696113
3 134 129 136 0.744468707946046
3 7 73 89 0.28430525605822476
3 73 22 91 0.3854347073839711
3 89 91 27 0.43910829924195116
3 73 91 89 0.08411219538311021
3 22 72 80 -1.0
3 72 1 78 0.07541870462327072
3 80 78 24 0.1228942531332663
3 72 78 80 0.0915520301222793
3 27 93 90 0.5864779486012047
3 93 24 79 0.6376231244044803
3 90 79 8 0.908805762576857
3 93 79 90 0.8469814248593182
3 22 80 91 0.4253270844189776
3 80 24 93 0.9263366929758994
3 91 93 27 0.5814222490773094
3 80 93 91 0.8921449955808761
3 3 99 49 -1.0
3 99 29 101 0.8651544625536958
3 49 101 15 0.35083097189784873
3 99 101 49 0.14554444636034558
3 29 100 107 0.6518484688442852
3 100 9 104 -1.0
3 107 104 30 -1.0
3 100 104 107 0.5995919007115286
3 15 105 50 0.015026186339239245
3 105 30 103 0.44574991805850106
3 50 103 4 0.06283696830390773
3 105 103 50 0.7164643482332236
3 29 107 101 0.14496040819828204
3 107 30 105 0.858843039688414
3 101 105 15 0.20891220130502663
3 107 105 101 -1.0
3 3 49 45 -1.0
3 49 15 51 0.6874416011632133
3 45 51 13 0.5914099178015585
3 49 51 45 0.9888099953811115
3 15 50 52 -1.0
3 50 4 47 0.5937919614892981
3 52 47 14 0.8778272631608091
3 50 47 52 0.10518239553748399
3 13 48 44 0.5060270455235937
3 48 14 46 -1.0
3 44 46 2 0.5136347576848334
3 48 46 44 -1.0
3 15 52 51 0.5267231194277031
3 52 14 48 0.1085439173370597
3 51 48 13 0.5235360005827236
3 52 48 51 0.7529594167291142
3 3 45 65 0.8885066618677256
3 45 13 67 0.9324283996699285
3 65 67 20 0.9730805230952393
3 45 67 65 0.008667728681121423
3 13 44 64 0.40429791015132943
3 44 2 62 0.984461314864747
3 64 62 19 -1.0
3 44 62 64 0.7482457190136419
3 20 68 66 0.757251905178132
3 68 19 63 0.9327539169846686
3 66 63 6 0.2030633954698119
3 68 63 66 -1.0
3 13 64 67 0.4664603572606064
3 64 19 68 0.7006903359436243
3 67 68 20 0.6471972423872637
3 64 68 67 -1.0
3 3 65 81 -1.0
3 65 20 83 0.3107144256807123
3 81 83 25 0.8434360153849346
3 65 83 81 0.27209690329910563
3 20 66 86 0.20891604379984108
3 66 6 84 0.7084829686229203
3 86 84 26 0.1766701553049591
3 66 84 86 0.3896086450027437
3 25 88 82 0.5956168224469814
3 88 26 85 0.06325879144136115
3 82 85 8 0.8303739753444072
3 88 85 82 0.8245985933529616
3 20 86 83 0.9012040856619967
3 86 26 88 0.6943884306549301
3 83 88 25 0.843224311950998
3 86 88 83 0.2885643928285556
3 3 81 99 0.017479997746946196
3 81 25 102 0.6080189930334521
3 99 102 29 0.05921095556421052
3 81 102 99 0.1532041351017115
3 25 82 117 0.40790426029049653
3 82 8 114 0.44910669596074215
3 117 114 32 0.21914030669813922
3 82 114 117 0.9685495531229391
3 29 119 100 0.11658467964489849
3 119 32 115 0.12435669589317355
3 100 115 9 0.8568579578283011
3 119 115 100 -1.0
3 25 117 102 0.7180239969302167
3 117 32 119 -1.0
3 102 119 29 0.6871429046292159
3 117 119 102 0.1820572779786892
3 4 103 60 0.06810909104160467
3 103 30 106 0.4632001498321251
3 60 106 18 0.9927815011790895
3 103 106 60 0.8860225670109411
3 30 104 113 0.9683485135686378
3 104 9 109 0.6561457676461514
3 113 109 31 0.24701797802790848
3 104 109 113 0.6745096966747953
3 18 111 61 0.7803138349204807
3 111 31 108 0.986149271208504
3 61 108 5 0.33511181067897644
3 111 108 61 0.20893486337305545
3 30 113 106 0.7813726169625682
3 113 31 111 0.2932022590648218
3 106 111 18 0.8031741687349357
3 113 111 106 0.19878296750396984
3 2 46 141 0.31238169341438315
3 46 14 143 0.722020931818542
3 141 143 38 0.6765487125807345
3 46 143 141 0.714779589200134
3 14 47 147 0.3578354764667633
3 47 4 145 -1.0
3 147 145 39 -1.0
3 47 145 147 0.7441204442050438
3 38 149 142 0.027686789886762653
3 149 39 146 0.8418321049919115
3 142 146 11 0.9416567097962923
3 149 146 142 -1.0
3 14 147 143 0.06381134314461334
3 147 39 149 0.9851048994742446
3 143 149 38 -1.0
3 147 149 143 0.41213364267418484
3 6 63 126 0.2085809903417457
3 63 19 128 0.46426234299387126
3 126 128 35 -1.0
3 63 128 126 0.44873468334653954
3 19 62 125 -1.0
3 62 2 123 0.746788159764424
3 125 123 34 0.622148144103436
3 62 123 125 0.029490424421490524
3 35 130 127 0.28604577065939507
3 130 34 124 0.26803283892816265
3 127 124 10 0.3904214432380527
3 130 124 127 0.031002545003515736
3 19 125 128 -1.0
3 125 34 130 0.9261594016877368
3 128 130 35 0.054174349047521275
3 125 130 128 -1.0
3 8 85 90 -1.0
3 85 26 94 -1.0
3 90 94 27 0.7491655198823375
3 85 94 90 0.1962234990740187
3 26 84 87 0.18041544930835396
3 84 6 76 0.532030746389809
3 87 76 23 0.7559246167105532
3 84 76 87 0.5405333279597008
3 27 92 89 0.4022175053915328
3 92 23 77 0.2172732802768218
3 89 77 7 0.044550791863874006
3 92 77 89 -1.0
3 26 87 94 0.10478304572577568
3 87 23 92 0.9363824918227518
3 94 92 27 0.6972893917442965
3 87 92 94 0.806014055069407
3 9 115 96 0.36717779611341084
3 115 32 118 -1.0
3 96 118 28 0.45192463042478004
3 115 118 96 -1.0
3 32 114 116 0.4893618190570572
3 114 8 79 0.14154336512960242
3 116 79 24 -1.0
3 114 79 116 0.15022181733203854
3 28 98 95 0.8688185516161768
3 98 24 78 -1.0
3 95 78 1 0.6339758050760806
3 98 78 95 0.731012305957162
3 32 116 118 0.5766691469159834
3 116 24 98 0.19264987168836212
3 118 98 28 0.5936246914823048
3 116 98 118 0.07507988687776856
